{"title":"18+ Range 15 2016 UNCENSORED Movies HDRip XviD New +Sample ☻rDX☻","uid":15573579,"size":740328303,"categoryP":"video","categoryS":"movies","magnet":"?xt=urn:btih:2914a4de419e9fde24c598e74197c40a12c6fb42&amp;dn=18%2B+Range+15+2016+UNCENSORED+Movies+HDRip+XviD+New+%2BSample+%E2%98%BBrDX%E2%98%BB&amp;tr=udp%3A%2F%2Ftracker.leechers-paradise.org%3A6969&amp;tr=udp%3A%2F%2Fzer0day.ch%3A1337&amp;tr=udp%3A%2F%2Fopen.demonii.com%3A1337&amp;tr=udp%3A%2F%2Ftracker.coppersurfer.tk%3A6969&amp;tr=udp%3A%2F%2Fexodus.desync.com%3A6969","seeders":5,"leechers":3,"uploader":"basicssom","files":2,"time":1471294340,"description":"----------------------------------------------------------------\r\n18+ Range 15 2016 UNCENSORED English Movies HDRip XviD AAC New Source with Sample ☻rDX☻\r\n\r\nSCREEN SHOTS &amp; POSTER:\r\n  \nhttp://postimage.co.nr/2016/8/accessory/index.htm  \nhttp://postimage.co.nr/2016/8/accessory/1.html  \nhttp://postimage.co.nr/2016/8/accessory/2.html  \nhttp://postimage.co.nr/2016/8/accessory/3.html  \nhttp://postimage.co.nr/2016/8/accessory/4.html  \nhttp://postimage.co.nr/2016/8/accessory/5.html  \nhttp://postimage.co.nr/2016/8/accessory/6.html  \nhttp://postimage.co.nr/2016/8/accessory/7.html  \nhttp://postimage.co.nr/2016/8/accessory/8.html  \nhttp://postimage.co.nr/2016/8/accessory/9.html  \nhttp://postimage.co.nr/2016/8/accessory/10.html\r\n\r\nFormat                                   : Matroska\r\nFormat version                           : Version 4 / Version 2\r\nFile size                                : 699 MiB\r\nDuration                                 : 1 h 29 min\r\nOverall bit rate mode                    : Constant\r\nOverall bit rate                         : 1 091 kb/s\r\nMovie name                               : 18+ Range 15 2016 UNCENSORED English Movies HDRip XviD AAC New Source ☻rDX☻\r\n\r\nVideo\r\nID                                       : 2\r\nFormat                                   : AVC\r\nFormat/Info                              : Advanced Video Codec\r\nFormat profile                           :   \r\nFormat settings, CABAC                   : Yes\r\nFormat settings, ReFrames                : 2 frames\r\nFormat settings, GOP                     : M=1, N=12\r\nCodec ID                                 : V_MPEG4/ISO/AVC\r\nDuration                                 : 1 h 29 min\r\nBit rate mode                            : Constant\r\nBit rate                                 : 900 kb/s\r\nWidth                                    : 720 pixels\r\nHeight                                   : 304 pixels\r\nDisplay aspect ratio                     : 2.35:1\r\nFrame rate mode                          : Constant\r\nFrame rate                               : 23.976 FPS\r\nColor space                              : YUV\r\nChroma subsampling                       : 4:2:0\r\nBit depth                                : 8 bits\r\nScan type                                : Progressive\r\nBits/(Pixel*Frame)                       : 0.171\r\nStream size                              : 562 MiB (80%)\r\nTitle                                    : ☻rDX☻\r\nDefault                                  : Yes\r\nForced                                   : No\r\n\r\nAudio\r\nID                                       : 1\r\nFormat                                   : AC-3\r\nFormat/Info                              : Audio Coding 3\r\nMode extension                           : CM (complete main)\r\nFormat settings, Endianness              : Big\r\nCodec ID                                 : A_AC3\r\nDuration                                 : 1 h 29 min\r\nBit rate mode                            : Constant\r\nBit rate                                 : 192 kb/s\r\nChannel(s)                               : 2 channels\r\nChannel positions                        : Front: L R\r\nSampling rate                            : 48.0 kHz\r\nFrame rate                               : 31.250 FPS (1536 spf)\r\nCompression mode                         : Lossy\r\nStream size                              : 123 MiB (18%)\r\nTitle                                    : ☻rDX☻\r\nDefault                                  : Yes\r\nForced                                   : No\r\n\r\nIMDB \nhttp://www.imdb.com/title/tt4687276/","torrent":{"xt":"urn:btih:2914a4de419e9fde24c598e74197c40a12c6fb42","amp;dn":"18%2B+Range+15+2016+UNCENSORED+Movies+HDRip+XviD+New+%2BSample+%E2%98%BBrDX%E2%98%BB","amp;tr":["udp%3A%2F%2Ftracker.leechers-paradise.org%3A6969","udp%3A%2F%2Fzer0day.ch%3A1337","udp%3A%2F%2Fopen.demonii.com%3A1337","udp%3A%2F%2Ftracker.coppersurfer.tk%3A6969","udp%3A%2F%2Fexodus.desync.com%3A6969"],"infoHash":"2914a4de419e9fde24c598e74197c40a12c6fb42","infoHashBuffer":{"type":"Buffer","data":[41,20,164,222,65,158,159,222,36,197,152,231,65,151,196,10,18,198,251,66]},"announce":[],"urlList":[]}}